
<svg xmlns="http://www.w3.org/2000/svg" viewBox="0 0 24 24" role="img" aria-label="GitHub logo">
	<path fill="currentColor" d="M12 .5C5.73.5.5 5.73.5 12c0 5.08 3.29 9.38 7.86 10.9.58.11.79-.25.79-.56 0-.28-.01-1.02-.02-2-3.2.7-3.88-1.54-3.88-1.54-.53-1.36-1.3-1.72-1.3-1.72-1.06-.72.08-.71.08-.71 1.17.08 1.78 1.2 1.78 1.2 1.04 1.78 2.72 1.27 3.38.97.11-.75.41-1.27.74-1.56-2.55-.29-5.23-1.28-5.23-5.7 0-1.26.45-2.28 1.18-3.09-.12-.29-.51-1.46.11-3.04 0 0 .96-.31 3.15 1.18.92-.26 1.9-.39 2.88-.39.98 0 1.96.13 2.88.39 2.19-1.49 3.15-1.18 3.15-1.18.62 1.58.23 2.75.12 3.04.74.81 1.18 1.83 1.18 3.09 0 4.43-2.69 5.41-5.25 5.69.42.36.79 1.07.79 2.16 0 1.56-.01 2.82-.01 3.21 0 .31.21.68.8.56A11.52 11.52 0 0 0 23.5 12C23.5 5.73 18.27.5 12 .5z"/>
</svg>
